Coordinates
version=1
nRows=14
nColumns=24
inDegrees=yes

Units are S.I. units (second, meters, Newtons, ...)
Angles are in degrees.

endheader
time	pelvis_tilt	pelvis_list	pelvis_rotation	pelvis_tx	pelvis_ty	pelvis_tz	hip_flexion_r	hip_adduction_r	hip_rotation_r	knee_angle_r	ankle_angle_r	subtalar_angle_r	mtp_angle_r	hip_flexion_l	hip_adduction_l	hip_rotation_l	knee_angle_l	ankle_angle_l	subtalar_angle_l	mtp_angle_l	lumbar_extension	lumbar_bending	lumbar_rotation
      1.71200000	      2.23207911	      0.30154070	     -3.67354254	      1.37161647	      1.02359942	      0.30818212	     20.59033323	     -4.05499412	     -7.29977574	    -65.12818425	      1.24715699	     -5.31592168	     -5.60176389	      5.88902299	      3.03789620	     -3.71394952	    -13.97777373	      2.51743896	    -15.50551783	    -11.78115182	    -12.07110841	     -2.95530481	     -0.87890763
      1.71616667	      2.29663745	      0.18890659	     -3.48213384	      1.37661513	      1.02436883	      0.30751501	     20.96158346	     -3.94389816	     -7.57720677	    -64.33465992	      1.69309251	     -5.03095354	     -5.56260688	      5.34464485	      2.98996628	     -3.56807576	    -13.64353601	      2.58607539	    -15.44606652	    -11.77810229	    -12.16938851	     -2.73452773	     -1.01074558
      1.72033333	      2.44676389	      0.03531466	     -3.18769642	      1.38165226	      1.02530958	      0.30663429	     21.17231837	     -3.84101156	     -7.97932002	    -63.44372117	      2.14794199	     -4.87311108	     -5.51721730	      4.70773306	      2.91856511	     -3.28027581	    -13.30481239	      2.59354317	    -15.45441524	    -11.77265259	    -12.37910688	     -2.46849430	     -1.28330884
      1.72450000	      2.51267276	     -0.07076945	     -3.00763808	      1.38663408	      1.02600412	      0.30600436	     21.51197256	     -3.73811261	     -8.24695606	    -62.56312785	      2.58054642	     -4.61074926	     -5.49279536	      4.16702336	      2.86905040	     -3.12984362	    -12.97701844	      2.65958610	    -15.41808479	    -11.76484080	    -12.47713385	     -2.26363339	     -1.40603370
      1.72866667	      2.62928691	     -0.20362832	     -2.75805104	      1.39162536	      1.02677985	      0.30524690	     21.74694271	     -3.63674868	     -8.59707984	    -61.61097800	      3.01370131	     -4.50411729	     -5.47200242	      3.58188888	      2.79953012	     -2.88536162	    -12.65778577	      2.68404465	    -15.41750519	    -11.75071075	    -12.64814544	     -2.02309522	     -1.63336590
      1.73283333	      2.71096340	     -0.30452330	     -2.56793462	      1.39659298	      1.02743655	      0.30461003	     22.02738018	     -3.54535913	     -8.87532958	    -60.63935126	      3.42971628	     -4.35876769	     -5.45972324	      3.02827142	      2.75336527	     -2.70282334	    -12.32978939	      2.71134500	    -15.43648435	    -11.73570610	    -12.76854414	     -1.82585078	     -1.78124835
      1.73700000	      2.79800511	     -0.41368862	     -2.37544295	      1.40152385	      1.02805918	      0.30398545	     22.28339898	     -3.44498342	     -9.15581434	    -59.62056372	      3.83473258	     -4.23695633	     -5.45931151	      2.48493070	      2.69293239	     -2.51831347	    -12.02990311	      2.75921818	    -15.43817675	    -11.71536656	    -12.89524840	     -1.62119948	     -1.91741501
      1.74116667	      2.73748328	     -0.45918966	     -2.29170856	      1.40646844	      1.02834145	      0.30366309	     22.73538729	     -3.34376615	     -9.28948767	    -58.62843525	      4.25213416	     -4.16693305	     -5.45808458	      2.10868199	      2.67425706	     -2.46148570	    -11.75269174	      2.79554516	    -15.42814242	    -11.71048498	    -12.83994820	     -1.52158706	     -1.94463666
      1.74533333	      2.85012251	     -0.59151699	     -2.05091865	      1.41137509	      1.02896740	      0.30291445	     22.90143746	     -3.25021354	     -9.62693784	    -57.49229717	      4.59402606	     -4.02357329	     -5.47808511	      1.55136594	      2.59103982	     -2.20751600	    -11.47262253	      2.89539710	    -15.41028555	    -11.68743329	    -13.01326897	     -1.26909642	     -2.11060036
      1.74950000	      2.89152788	     -0.65709026	     -1.92664286	      1.41629866	      1.02936396	      0.30245894	     23.18251481	     -3.16351666	     -9.81890670	    -56.38257468	      4.93137320	     -3.98441137	     -5.49870988	      1.06519060	      2.56107779	     -2.09356428	    -11.19251398	      2.94288093	    -15.44361032	    -11.66684440	    -13.07859652	     -1.12244255	     -2.22077318
      1.75366667	      2.90769255	     -0.71269693	     -1.78052627	      1.42114880	      1.02968000	      0.30199264	     23.47311358	     -3.09076068	    -10.01897183	    -55.23749045	      5.28865480	     -3.96432331	     -5.52788175	      0.62627561	      2.53655394	     -1.95029407	    -10.93628028	      3.02123280	    -15.42233120	    -11.64531054	    -13.12703944	     -0.99184848	     -2.30604216
      1.75783333	      2.91772122	     -0.76932222	     -1.66257187	      1.42604737	      1.02995890	      0.30158352	     23.74919659	     -3.00572505	    -10.19361533	    -54.04355348	      5.60195569	     -3.95108661	     -5.56326784	      0.18681693	      2.50721228	     -1.84868087	    -10.67735886	      3.09540463	    -15.42656700	    -11.62308743	    -13.16301933	     -0.86116146	     -2.37885487
      1.76200000	      2.93340315	     -0.81132997	     -1.55992612	      1.43091456	      1.03018787	      0.30123172	     24.00976489	     -2.92483151	    -10.33983668	    -52.82287070	      5.91293563	     -3.96303577	     -5.60275271	     -0.24674913	      2.48867085	     -1.77086932	    -10.44129645	      3.19165576	    -15.40710593	    -11.60127034	    -13.20624922	     -0.75213824	     -2.43617510
      1.76616667	      2.90754318	     -0.83957170	     -1.47334003	      1.43579297	      1.03031570	      0.30091355	     24.30144444	     -2.85064852	    -10.46679863	    -51.56773823	      6.20247450	     -3.98990360	     -5.64665627	     -0.63798564	      2.48241771	     -1.70608412	    -10.20306206	      3.28969913	    -15.39218996	    -11.57958308	    -13.20202827	     -0.66227605	     -2.46490370
